<?xml version="1.0" encoding="UTF-8" standalone="no"?>
<svg
   xmlns:dc="http://purl.org/dc/elements/1.1/"
   xmlns:cc="http://creativecommons.org/ns#"
   xmlns:rdf="http://www.w3.org/1999/02/22-rdf-syntax-ns#"
   xmlns:svg="http://www.w3.org/2000/svg"
   xmlns="http://www.w3.org/2000/svg"
   xmlns:sodipodi="http://sodipodi.sourceforge.net/DTD/sodipodi-0.dtd"
   xmlns:inkscape="http://www.inkscape.org/namespaces/inkscape"
   width="52.916668mm"
   height="52.916668mm"
   viewBox="0 0 52.916668 52.916668"
   version="1.1"
   id="svg205"
   inkscape:version="1.0 (6e3e5246a0, 2020-05-07)"
   sodipodi:docname="dinosaur.svg">
  <defs
     id="defs199">
    <clipPath
       id="clipPath71"
       clipPathUnits="userSpaceOnUse">
      <path
         id="path73"
         d="m 20.690786,42.470631 c 0.24747,-0.403918 0.303034,-0.727533 0.409335,-1.148035 0.01624,-0.06425 0,-0.265084 0,-0.198813 0,0.06627 -0.04686,0.245673 0,0.198813 0.24546,-0.245459 0.0149,-0.930288 0.363253,-1.103387 0.525002,-0.260871 1.970187,0.727213 2.064571,0.868768 0.173342,0.259974 0.457042,0.711432 0.740484,0.855099 0.0064,0.0032 0.364084,-0.04395 0.608668,0 0.410974,0.07385 0.809965,0.209571 1.222924,0.271362 4.384665,0.656084 -1.598129,-0.441635 2.342187,0.297174 0.104,0.0195 0.723866,0.0431 0.891855,0.0991 0.04432,0.01476 0.06606,0.06606 0.09909,0.09909 0.09909,0.03303 0.195948,0.07376 0.297286,0.09909 0.03204,0.008 0.06606,0 0.09909,0 0.0991,0.06606 0.184298,0.160528 0.297283,0.198186 0.09401,0.03134 0.201149,-0.02402 0.297286,0 0.474337,0.118589 0.93368,0.325358 1.387327,0.495477 0.593936,0.222724 0.186393,0.02663 0.693666,0.09909 0.443828,0.0634 0.86633,0.275836 1.288232,0.396381 0.580509,0.165859 1.124596,0.269329 1.684613,0.495474 0.438846,0.177213 2.437318,-0.06802 2.958809,0 0.868582,-0.689507 1.545886,0.373258 2.279181,0.495475 1.941754,0 -0.04233,-0.07312 0.99095,0.09909 0.627734,0.104624 1.201907,0.02797 1.882804,0.198194 0.373062,0.09327 0.816075,-0.09327 1.189138,0 0.143311,0.03583 0.254341,0.157607 0.396377,0.198186 0.222327,0.06352 0.466934,-0.04535 0.693667,0 0.04581,0.0092 0.05329,0.08993 0.09909,0.09909 0.300355,0.06007 2.919076,0.373515 3.270131,0.198189 0.251827,-0.12577 0.974198,-0.811718 1.105781,-1.031023 0.07007,-0.116785 0.02355,-0.283062 0.09909,-0.396383 0.277677,-0.416515 0.284477,-0.54333 0.39638,-0.990947 0.05734,-0.229338 0.197273,-0.394544 0.297286,-0.594569 0.04751,-0.09501 0,-0.28652 0,-0.39638 0,-0.792038 0.01926,-1.617197 -0.198192,-2.378276 -0.106214,-0.37175 -0.285284,-0.719725 -0.39638,-1.090044 -0.07827,-0.2609 -0.102547,-0.537715 -0.198189,-0.79276 -0.114228,-0.30461 -0.238387,-0.607468 -0.39638,-0.891853 -0.08021,-0.144375 -0.228941,-0.246025 -0.297283,-0.39638 -0.155848,-0.34286 -0.128855,-0.753186 -0.297286,-1.090043 -0.04178,-0.08356 -0.132125,-0.132125 -0.198189,-0.198187 -0.09909,-0.231222 -0.212674,-0.456758 -0.297286,-0.693663 -0.373562,-1.04598 -0.553257,-2.158267 -1.027842,-3.17264 -0.247351,-0.528685 -0.640869,-0.982707 -0.87072,-1.519232 -0.106445,-0.248465 -0.11121,-0.533498 -0.222705,-0.779738 -0.07499,-0.165621 -0.245983,-0.273579 -0.327756,-0.435962 -0.273875,-0.543867 -0.531754,-1.316595 -0.734435,-1.889754 -0.173329,-0.490154 -0.214371,-1.022035 -0.401159,-1.507219 -0.252664,-0.65631 -0.616606,-1.273338 -0.905391,-1.907894 -0.206023,-0.452682 -0.299556,-0.950763 -0.501586,-1.40524 C 43.406529,21.190284 42.895616,20.070798 42.26967,19.131882 42.140109,18.93754 41.928003,18.812185 41.774198,18.636407 41.202005,17.982474 40.706925,17.271851 40.089583,16.654509 39.397068,15.961993 38.572298,15.381233 37.810354,14.771677 37.29095,14.356154 36.835629,13.801005 36.423016,13.285235 36.247214,13.065485 36.343646,13.304955 36.026633,12.98795 35.613179,12.574498 35.323894,12.03634 34.936607,11.600642 33.36303,9.8303691 31.790786,8.0594319 29.583039,7.0410591 28.886131,6.7195946 28.179395,6.5550087 27.449843,6.3305354 26.957756,6.179126 26.343724,5.9038485 25.835161,5.8254064 c -0.228716,-0.035278 -0.463429,0.016481 -0.694262,0 -1.552001,-0.1108094 -3.096543,-0.099095 -4.65746,-0.099095 -0.472254,0 -0.824509,-0.056938 -1.288233,-0.099095 -1.224419,-0.1113108 -2.538806,0 -3.765606,0 -1.614598,0 -3.229196,0 -4.843794,0 -0.6349546,0 -1.7957436,-0.1456333 -2.3782773,0 -0.1155411,0.028886 -0.1867056,0.1539584 -0.297285,0.1981901 -0.3936,0.15744 -0.9750163,-0.038342 -1.3873279,0.099095 C 6.1011046,6.0651049 5.4398378,6.8128721 5.0364924,7.014545 4.4892307,7.288176 2.8331041,8.6466648 2.5591205,9.194632 2.2771832,9.7585067 2.5237155,9.8777126 2.3609307,10.284676 c -0.034698,0.08675 -0.1564077,0.114627 -0.1981898,0.198191 -0.075323,0.150648 -0.036542,0.339092 -0.099095,0.495475 -0.1553833,0.388458 -0.4640152,0.698381 -0.5945692,1.090043 -0.027857,0.08357 0.039128,0.21903 0,0.297285 -0.2959448,0.59189 -0.099095,2.161746 -0.099095,2.873751 0,0.534086 -0.1450841,2.141215 0,2.576467 0.058365,0.175095 0.253763,0.420483 0.2972846,0.59457 0.07019,0.280761 0.085156,0.628108 0.1981898,0.891853 -0.2095888,0.443833 0.2898557,0.381522 0.3963795,0.59457 0.079551,0.159101 0.1550474,0.322905 0.1981898,0.495474 0.024034,0.09614 -0.044317,0.208652 0,0.297285 0.062673,0.125346 0.209739,0.187852 0.2972846,0.297284 0.1864672,0.233084 0.3700155,0.640937 0.4954743,0.891854 0.1161476,0.232295 0.064513,0.47087 0.1981899,0.693665 0.1900854,0.316809 0.2116066,0.225023 0.3963794,0.594569 0.2670551,0.53411 2.2266011,1.856512 2.8737515,2.180087 0.1218147,0.06091 0.2830603,0.02355 0.3963797,0.09909 0.4297913,0.286528 -0.027182,0.12786 0.3963794,0.297285 0.246696,0.09868 0.5728822,0.1507 0.7927592,0.297284 0.1621261,0.108084 0.1886508,0.228042 0.3963794,0.297285 0.3540686,0.118023 -0.4082227,-0.383666 0.3963795,0.09909 0.080114,0.04807 0.1146257,0.156408 0.1981898,0.198191 0.2693607,0.134678 0.7240789,0.115041 1.0599899,0.283448 0.06554,0.03286 0.179949,-0.03248 0.245705,0 0.14589,0.07206 0.233854,0.22847 0.378912,0.30204 0.114251,0.05795 0.302033,0.01148 0.418667,0.07044 0.003,0.0016 0.13766,0.139168 0.13993,0.139925 0.478961,0.159925 1.412259,0.03632 1.892598,0.156406 0.349885,0.08747 0.328154,0.163946 0.594497,0.297214 0.149013,0.07456 0.428831,0.05863 0.59186,0.0991 0.249141,0.06184 0.473759,0.252579 0.669955,0.384596 0.196364,0.132133 0.472563,0.117459 0.684561,0.257423 0.09967,0.06581 0.304121,0.36753 0.219667,0.283075 -0.03554,-0.03555 -0.07011,-0.183787 -0.07011,-0.133519 0,0.118613 0.201713,0.419629 0.117844,0.335756 -0.02526,-0.02527 -0.04773,-0.13167 -0.04773,-0.09595 0,0.127304 0.144384,0.164102 0.145576,0.241443 0.0017,0.11408 -0.655649,0.138147 -1.099594,0.360188 -0.155949,0.078 -0.556136,0 -0.732458,0 -0.09129,0 -0.365146,0 -0.273859,0 0.37029,0 -0.247587,0.113167 -0.313071,0.126171 -0.261305,0.05188 -1.301721,0.477518 -1.448252,0.767356 -0.09333,0.184594 -0.18358,0.356978 -0.254131,0.570698 -0.05544,0.167939 0.0051,0.431385 -0.07283,0.583343 -0.0179,0.03493 -0.05551,0.05551 -0.08326,0.08326 -0.05924,0.05924 -0.141726,0.102065 -0.177717,0.177718 -0.14333,0.301268 -0.144443,0.765222 -0.198186,1.087683 -0.04136,0.24814 -0.208956,0.458121 -0.297285,0.693664 -0.106038,0.282768 -0.138875,0.595281 -0.19819,0.891855 -0.167722,0.838607 0.046,1.822614 0.297285,2.576467 0.0735,0.220493 0.35408,0.77946 0.396376,0.990949 0.08161,0.408075 0.06855,0.807919 0.297285,1.189138 0.04807,0.08011 0.156408,0.114626 0.19819,0.198189 0.208022,0.416047 0.13569,0.956411 0.297284,1.38733 0.04182,0.111514 0.151275,0.187817 0.19819,0.297283 0.1884,0.4396 0.343781,0.932249 0.495475,1.387329 0.128427,0.385281 0.119935,0.933535 0.297284,1.288233 0.03303,0.06606 0.134855,0.06109 0.19819,0.0991 0.212128,0.127276 0.473911,0.407573 0.693664,0.495472 0.282755,0.113105 0.613565,0.07451 0.891854,0.198192 0.150923,0.06708 0.241737,0.239294 0.39638,0.297283 0.166885,0.06258 0.694418,0 0.891853,0 0.486831,0 1.118439,0.116771 1.585518,0 0.165159,-0.06606 0.330317,-0.132125 0.495475,-0.198189 0.03303,-0.03303 0.05731,-0.0782 0.0991,-0.09909 0.118177,-0.05909 0.266819,0.0259 0.396379,0 0.165009,-0.033 1.368687,-0.972307 1.486423,-1.090043 0.172526,-0.172527 0.17366,-0.586719 0.297285,-0.792761 0.04807,-0.08011 0.156408,-0.114625 0.19819,-0.198189 0.248462,-0.496924 -0.2212,-0.356555 -0.607549,-0.15472 z"
         style="fill:none;stroke:#000000;stroke-width:0.264583px;stroke-linecap:butt;stroke-linejoin:miter;stroke-opacity:1" />
    </clipPath>
  </defs>
  <sodipodi:namedview
     id="base"
     pagecolor="#ffffff"
     bordercolor="#666666"
     borderopacity="1.0"
     inkscape:pageopacity="0.0"
     inkscape:pageshadow="2"
     inkscape:zoom="2.0153513"
     inkscape:cx="60.956326"
     inkscape:cy="69.524522"
     inkscape:document-units="mm"
     inkscape:current-layer="layer1"
     inkscape:document-rotation="0"
     showgrid="false"
     inkscape:window-width="1299"
     inkscape:window-height="713"
     inkscape:window-x="67"
     inkscape:window-y="27"
     inkscape:window-maximized="1" />
  <metadata
     id="metadata202">
    <rdf:RDF>
      <cc:Work
         rdf:about="">
        <dc:format>image/svg+xml</dc:format>
        <dc:type
           rdf:resource="http://purl.org/dc/dcmitype/StillImage" />
        <dc:title />
      </cc:Work>
    </rdf:RDF>
  </metadata>
  <g
     inkscape:label="Layer 1"
     inkscape:groupmode="layer"
     id="layer1">
    <path
       clip-path="url(#clipPath71)"
       style="fill:#669900;stroke:#000000;stroke-width:0.264583px;stroke-linecap:butt;stroke-linejoin:miter;stroke-opacity:1"
       d="M 4.7759903,17.176151 C 14.660272,17.281708 17.271988,15.009384 17.271988,15.009384 L 5.2464279,14.976694 c 0,0 -0.4821743,0.04398 -0.402821,-0.393988 C 4.9229605,14.144736 4.3532041,9.5066322 5.1956557,8.7523721 6.0381075,7.9981117 16.355808,8.0972127 19.129685,8.343013 c 2.773876,0.2458 2.857506,0.19421 2.84873,2.515298 -0.0088,2.321087 -0.08871,4.457313 0.968068,7.814602 1.056778,3.35729 2.845476,8.614513 8.115396,12.894397 5.269918,4.279884 18.125162,11.685228 18.125162,11.685228 0,0 0.04701,1.284496 -8.518041,-0.976982 -8.565046,-2.261481 -6.037106,-5.401919 -12.055141,-4.838317 -6.018037,0.563603 -3.128167,3.5447 -6.863416,3.814906 -3.735249,0.270205 -6.214829,-1.8259 -6.783899,-3.422274 -0.569069,-1.596377 -1.269277,-5.14258 -0.04036,-10.920699 1.228919,-5.77812 2.536101,-8.797324 2.536101,-8.797324 0,0 -7.7828036,1.774345 -11.0414339,1.348121 C 3.1622208,19.033744 4.7759903,17.176151 4.7759903,17.176151 Z"
       id="path213" />
    <path
       id="path97"
       d="m 23.1076,40.344251 c 0.440313,1.451467 0.04924,3.111211 0.417165,4.582922 0.105061,0.420243 -0.09443,0.923319 0.03961,1.326602 0.114154,0.343458 2.119224,0.232569 1.845094,0.852371 -0.38528,0.871114 -1.636187,-0.01786 -1.963721,0.200348 -0.415633,0.276892 -0.791695,0.582827 -1.205542,0.860563 -0.341433,0.229139 -0.726542,0.197633 -1.104531,0.481568 -0.106298,0.07985 -0.45675,-0.06161 -0.45675,0 0,0.09579 -0.07213,-0.373986 -0.07213,-0.278189 0,0.162738 0.23294,-0.491392 0.355264,-0.613714 0.245647,-0.245647 1.108844,-0.294433 1.184375,-0.621249 0.0046,-0.01987 -2.376442,0.640622 -2.020659,-0.07111 0.391713,-0.783603 1.627774,-0.451517 2.013904,-0.451517 0.205469,0 -0.41094,0 -0.616409,0 -0.321003,0 -1.477874,-0.295402 -1.164454,-0.608822 0.380016,-0.380013 1.486441,0.116776 1.718705,-0.18642 0.187769,-0.245113 -0.400196,-1.569628 -0.452494,-1.883415 -0.201528,-1.209167 -0.441249,-2.474582 -0.669241,-3.625358"
       style="fill:none;stroke:#000000;stroke-width:0.264583px;stroke-linecap:butt;stroke-linejoin:miter;stroke-opacity:1" />
    <path
       id="path99"
       d="m 19.621197,41.232468 c -0.04594,1.158957 -0.661978,5.671198 0.608642,5.292897"
       style="fill:none;stroke:#000000;stroke-width:0.264583px;stroke-linecap:butt;stroke-linejoin:miter;stroke-opacity:1" />
    <path
       id="path133"
       d="m 19.899407,47.443495 c -1.153548,-0.267247 -1.780715,0.08719 -2.718654,0.559509 -0.163923,0.08255 -0.525148,0.08382 -0.662095,0.220769 -0.217149,0.217162 -0.874571,0.176778 -0.874571,0.241405 0,0.286774 -0.892412,-0.04116 -0.801327,-0.313081 0.136935,-0.408808 1.926514,-0.903256 1.963357,-1.061836 0.0019,-0.0082 -0.122533,0.07668 -0.129087,0.07994 -0.208533,0.103563 -0.62171,0.149987 -0.858825,0.149987 -0.744281,0 -0.837533,0.376766 -1.180006,-0.132075 -0.470137,-0.698524 1.8888,-0.720019 1.949603,-0.720019 0.17191,0 0.687192,-0.02151 0.515282,-0.02151 -0.623375,0 -2.287691,-0.169535 -2.072002,-0.601324 0.441899,-0.884645 2.951421,0.433827 3.217248,-0.284038 0.143205,-0.386729 -0.04388,-0.778476 -0.202099,-1.260761 -0.08727,-0.266002 0.06146,-0.986451 0.16855,-1.196417 0.02872,-0.0563 -0.108925,-2.092208 -0.180917,-2.38489"
       style="fill:none;stroke:#000000;stroke-width:0.264583px;stroke-linecap:butt;stroke-linejoin:miter;stroke-opacity:1" />
    <path
       id="path135"
       d="m 19.899407,47.443495 c 0.07887,-0.01937 0.255997,0.02074 0.236619,-0.05813 -0.01938,-0.07887 -0.157746,0.03876 -0.236619,0.05813"
       style="fill:none;stroke:#000000;stroke-width:0.264583px;stroke-linecap:butt;stroke-linejoin:miter;stroke-opacity:1" />
    <path
       id="path137"
       d="m 20.229839,46.525365 c 0.167463,0.07014 0.311866,0.24566 0,0"
       style="fill:none;stroke:#000000;stroke-width:0.264583px;stroke-linecap:butt;stroke-linejoin:miter;stroke-opacity:1" />
    <path
       transform="scale(0.26458333)"
       id="path139"
       d="m 57.404594,182.67773 c -0.35622,-0.17633 -0.647673,-0.41101 -0.647673,-0.52151 0,-0.34813 1.624147,-1.23573 4.212156,-2.30196 2.338417,-0.9634 3.102742,-1.39063 3.102742,-1.73432 0,-0.0784 -0.210658,-0.25148 -0.468129,-0.38462 -0.34406,-0.17792 -0.521241,-0.198 -0.668532,-0.0758 -0.301842,0.25051 -2.171595,0.60884 -3.20656,0.61453 -0.502899,0.003 -1.325825,0.10438 -1.828724,0.22581 -1.330069,0.32116 -1.534242,0.29503 -1.919208,-0.24561 -0.254287,-0.35711 -0.300806,-0.53932 -0.184805,-0.72387 0.405651,-0.64535 3.065669,-1.16842 6.752021,-1.32774 1.299156,-0.0561 2.447824,-0.17 2.552594,-0.25301 0.275952,-0.21864 0.233635,-0.69032 -0.0762,-0.84933 -0.146679,-0.0753 -1.021037,-0.17835 -1.943019,-0.22905 -2.004292,-0.11022 -3.996066,-0.46811 -4.99653,-0.89781 -0.800876,-0.34397 -0.829642,-0.47918 -0.201558,-0.94743 0.362054,-0.26992 0.628437,-0.31169 1.895313,-0.29719 0.829987,0.01 2.481897,0.19262 3.780685,0.41909 2.859974,0.49869 4.495196,0.52805 5.207925,0.0935 1.104041,-0.67312 1.227195,-2.1714 0.391074,-4.75778 -0.537473,-1.66257 -0.54785,-1.73906 -0.388658,-2.86474 0.08996,-0.6361 0.278537,-1.49486 0.419066,-1.90835 0.215943,-0.63539 0.238586,-1.09397 0.146227,-2.96151 -0.0601,-1.21534 -0.18985,-3.08524 -0.288325,-4.15533 -0.119692,-1.30067 -0.127507,-1.92585 -0.02357,-1.88596 0.774363,0.29715 3.241024,1.02712 3.740824,1.10705 0.346621,0.0554 0.667568,0.1981 0.713216,0.31706 0.04565,0.11895 -0.04536,1.73796 -0.202233,3.59778 -0.192234,2.27899 -0.28566,4.79758 -0.286547,7.72472 -0.0015,4.81273 0.125518,5.9382 0.840517,7.45007 0.506957,1.07196 1.127582,1.53972 2.04406,1.54059 l 0.599987,6.1e-4 -0.420033,0.43842 c -0.23102,0.24113 -0.510161,0.73832 -0.620317,1.10486 -0.153636,0.51122 -0.266531,0.65602 -0.48474,0.62172 -0.156454,-0.0246 -1.074829,-0.0848 -2.040834,-0.1338 -2.239262,-0.11359 -3.459514,0.17437 -6.276819,1.48125 -1.113635,0.51659 -2.49905,1.07256 -3.0787,1.2355 -0.579651,0.16294 -1.235987,0.4259 -1.458526,0.58436 -0.421206,0.29993 -1.252196,0.53148 -2.465998,0.68714 -0.391275,0.0502 -0.793991,0.19074 -0.894924,0.31236 -0.250235,0.30151 -0.564348,0.27791 -1.327246,-0.0997 z"
       style="fill:#669900;stroke-width:0.152394" />
    <path
       id="path143"
       d="m 15.700892,29.920678 c -0.267061,-0.08771 -0.560494,-0.08651 -0.812958,-0.170666 -0.494673,-0.164889 -0.942618,-0.475488 -1.451552,-0.645134 -0.306483,-0.102161 -0.690643,0.0019 -1.012741,-0.07875 -0.777745,-0.194437 -1.485508,-0.34689 -2.271169,-0.544243 C 9.5310218,28.325781 8.8067961,28.644591 8.2125287,29.04077 8.1435657,29.08675 7.9238471,29.150183 7.8899619,29.242375 7.6114951,30.000003 7.3289127,30.399958 6.8759252,30.700514 6.6045071,30.8806 6.6458747,30.05565 6.6917178,29.872276 c 0.00534,-0.02138 0.1912284,-0.362887 0.1612833,-0.362887 -0.059671,0 -0.07828,0.09022 -0.120474,0.132408 -0.1324983,0.132498 -0.7782142,0.9306 -1.0449147,0.807749 -0.2179984,-0.100417 0.2289995,-0.802288 0.2890689,-0.892392 0.068904,-0.103357 0.074775,-0.489296 0.074775,-0.365077 0,0.306356 -1.2322828,0.68498 -1.2852979,0.737997 -0.00673,0.0067 0.1073994,-0.298432 0.1560758,-0.371446 0.085503,-0.128254 0.1746801,-0.588193 0.2822459,-0.645134 0.1712952,-0.09068 0.3022229,-0.318651 0.4983562,-0.416718 0.4956003,-0.247801 1.0533417,-0.365387 1.5321917,-0.604811 0.065645,-0.03282 0.2485303,-0.02551 0.3225668,-0.04032 0.3403941,-0.06808 0.6783342,-0.240499 1.0073846,-0.322205 0.5237943,-0.130058 1.1946871,0.04032 1.7337956,0.04032 0.792091,0 3.533586,-0.128286 4.193367,0.201604 0.351391,0.175694 0.734888,0.284941 1.102802,0.415029"
       style="fill:#669900;stroke:#000000;stroke-width:0.264583px;stroke-linecap:butt;stroke-linejoin:miter;stroke-opacity:1" />
    <path
       transform="scale(0.26458333)"
       id="path145"
       d="m 59.283749,110.59357 c -0.04434,-0.36006 -0.107762,-1.1424 -0.140929,-1.73853 l -0.0603,-1.08389 0.518438,0.15911 c 0.713159,0.21888 1.205484,0.75548 1.496207,1.63076 0.135093,0.40673 0.322279,0.76506 0.415969,0.79629 0.348387,0.11613 -0.06001,0.39479 -0.835607,0.57016 -0.440296,0.0996 -0.915875,0.21245 -1.056843,0.25088 -0.203344,0.0554 -0.272965,-0.0654 -0.33693,-0.58478 z"
       style="fill:#669900;stroke-width:0.152394" />
    <path
       transform="scale(0.26458333)"
       id="path147"
       d="m 78.545213,183.16029 c 0,-0.0859 0.239987,-0.63275 0.533304,-1.2152 0.584635,-1.16093 0.740196,-1.2776 2.438374,-1.82887 1.289742,-0.41868 1.870212,-0.69621 2.324004,-1.11115 0.470654,-0.43035 0.429658,-0.81727 -0.116519,-1.09971 -0.426645,-0.22063 -0.603233,-0.20917 -2.476398,0.16058 -1.978014,0.39045 -4.387691,0.56427 -4.621443,0.33336 -0.06502,-0.0642 0.02064,-0.30426 0.190369,-0.53338 0.747667,-1.00932 2.118132,-1.49377 3.502032,-1.23794 0.4359,0.0806 1.500958,0.12691 2.366794,0.10295 l 1.574247,-0.0436 0.0463,-0.47582 c 0.03067,-0.31514 -0.031,-0.50549 -0.182597,-0.56367 -0.125895,-0.0483 -1.106811,-0.13226 -2.179815,-0.18656 -2.109414,-0.10675 -2.803689,-0.23612 -3.812782,-0.71045 -0.760369,-0.35742 -0.811468,-0.52213 -0.233546,-0.75283 0.306421,-0.12232 0.994773,-0.11839 2.560548,0.0146 1.906147,0.1619 2.210228,0.15438 2.767239,-0.0685 1.235991,-0.49455 1.228114,-1.36423 -0.04776,-5.27327 -0.594068,-1.82011 -0.976541,-3.38136 -1.362669,-5.56237 -0.295237,-1.66763 -0.748867,-4.12929 -1.008068,-5.47035 -0.979854,-5.06962 -0.327752,-6.3942 2.657892,-5.39883 0.978699,0.32628 3.047815,1.37187 3.477589,1.75733 0.407538,0.36552 0.611134,2.56273 0.753995,8.13711 0.111675,4.3575 0.18885,5.51848 0.450799,6.78152 0.263956,1.27273 0.299818,1.82539 0.21755,3.35267 -0.126851,2.35495 0.03018,3.01169 0.815866,3.41208 0.311098,0.15854 1.491425,0.47128 2.622949,0.69498 2.338803,0.46239 2.979702,0.63671 3.468523,0.94345 0.326685,0.205 0.332447,0.23936 0.111715,0.66621 -0.510478,0.98715 -1.681923,1.14134 -4.037419,0.53142 -2.491387,-0.64512 -2.483089,-0.64721 -5.197958,1.30968 -2.626843,1.89344 -2.966962,2.08832 -4.479043,2.56634 -0.586715,0.18548 -1.293551,0.46934 -1.570746,0.63081 -0.533383,0.31069 -1.553325,0.40089 -1.553325,0.13737 z"
       style="fill:#669900;stroke-width:0.152394" />
    <path
       d="m 16.67998,28.428337 a 0.77424353,1.0976279 0 0 1 -0.772116,1.097624 0.77424353,1.0976279 0 0 1 -0.77636,-1.091589 l 0.774232,-0.006 z"
       sodipodi:arc-type="slice"
       sodipodi:end="3.1360949"
       sodipodi:start="0"
       sodipodi:ry="1.0976279"
       sodipodi:rx="0.77424353"
       sodipodi:cy="28.428337"
       sodipodi:cx="15.905736"
       sodipodi:type="arc"
       id="path153"
       style="fill:#669900;stroke-width:0.264583" />
    <rect
       y="39.247055"
       x="21.288919"
       height="1.9316397"
       width="1.6669898"
       id="rect159"
       style="fill:#669900;stroke-width:0.264583" />
    <path
       id="path171"
       d="m 14.917737,26.770848 c -1.601456,0 -3.202911,0 -4.804367,0 -0.3082071,0 -0.8933471,-0.100631 -1.1607718,0.0397 -0.2104229,0.110423 -0.6201614,-0.04849 -0.8567253,0 -0.3433609,0.07038 -0.6389455,0.251838 -0.9867641,0.308845 -0.1887344,0.03093 -0.5815737,0.08283 -0.7356573,0.198139 -0.2926564,0.219008 -1.614207,1.156782 -1.62282,1.153922 -0.3661915,-0.121553 0.328132,-1.113219 0.2217904,-1.102371 -0.5660818,0.05775 -0.7239674,0.833345 -1.0382096,0.765074 -0.2123829,-0.04614 0.3838361,-1.13884 0.3627152,-1.153586 -0.038195,-0.02667 -0.3507965,0.284568 -0.4013663,0.318281 -0.3544684,0.236313 -0.4792401,0.410083 -0.6035757,0.487074 -0.019349,0.01199 -0.00254,-0.355671 0.1234577,-0.608867 0.128913,-0.25904 0.2777945,-0.627737 0.5684674,-0.778533 0.468598,-0.243101 1.0165088,-0.289321 1.4768073,-0.51947 0.2717091,-0.135855 0.7483528,-0.02097 1.0483416,-0.120963 0.3425663,-0.114189 0.7816551,-0.259719 1.1447301,-0.259719 2.4716274,0 5.0660794,0 7.4662824,0"
       style="fill:#669900;stroke:#000000;stroke-width:0.264583px;stroke-linecap:butt;stroke-linejoin:miter;stroke-opacity:1" />
    <path
       id="path175"
       d="m 20.495794,9.252547 c -3.152855,-0.2452094 -2.821203,1.155487 -2.821203,1.155487 0,0 2.047005,-4.7e-5 2.821203,-1.155487 z"
       style="fill:#cc0000;stroke:#000000;stroke-width:0.264583px;stroke-linecap:butt;stroke-linejoin:miter;stroke-opacity:1" />
    <path
       id="path179"
       d="M 6.1940839,9.243143 C 5.769606,9.3474155 5.4013946,10.246919 5.4114085,10.28692 c 0.033732,0.134741 0.261257,0.116239 0.4001561,0.116239 1.5958437,0 0.9328465,-1.5578705 0.3825193,-1.160016 z"
       style="fill:none;stroke:#000000;stroke-width:0.264583px;stroke-linecap:butt;stroke-linejoin:miter;stroke-opacity:1" />
    <path
       transform="scale(0.26458333)"
       id="path181"
       d="m 21.233139,38.703065 c 0,-0.240546 0.726981,-1.576221 1.223269,-2.247498 0.252374,-0.341359 0.770892,-0.749901 1.152263,-0.90787 0.627403,-0.259879 0.734197,-0.236837 1.121999,0.242079 0.235729,0.291112 0.428598,0.702511 0.428598,0.914219 0,0.481995 -0.590669,1.341784 -1.108851,1.614067 -0.503712,0.264679 -2.817278,0.580846 -2.817278,0.385003 z"
       style="fill:#5b2d07;stroke-width:0.230949" />
  </g>
</svg>
